<svg width="1792" height="1792" viewBox="0 0 1792 1792" version="1.1" id="svg4" xmlns="http://www.w3.org/2000/svg" xmlns:svg="http://www.w3.org/2000/svg"><defs id="defs8" /><path style="fill:var(--icon-colour__dark-green);fill-opacity:1;stroke:none;stroke-width:286.988;stroke-linecap:round;stroke-linejoin:round" d="M 775.70832,1019.0502 C 658.90652,1012.9711 534.79176,995.37551 439.05232,971.32296 302.63763,937.05161 194.2012,883.64459 153.91992,830.88979 131.78097,801.89529 129.08475,786.41277 129.08475,688.27899 v -86.74961 l 20.91631,13.38001 c 123.57012,79.04685 333.91916,132.51699 590.33792,150.06227 72.71249,4.97529 238.00612,4.86219 313.58022,-0.21459 251.1007,-16.86796 465.6559,-71.53407 588.0488,-149.8279 l 20.9473,-13.39979 v 86.74961 c 0,98.13378 -2.6963,113.6163 -24.8352,142.6108 -40.2851,52.75975 -148.6837,106.14544 -285.182,140.45055 -163.0039,40.96646 -373.09385,58.33226 -577.18978,47.70986 z" id="path5112" /><path style="fill:var(--icon-colour__dark-green);fill-opacity:1;stroke:none;stroke-width:286.988;stroke-linecap:round;stroke-linejoin:round" d="m 782.1017,1787.6165 c -117.05398,-7.9376 -175.65287,-14.7698 -258.1695,-30.1008 -202.59268,-37.6404 -343.10097,-103.6981 -384.13706,-180.5959 -8.44434,-15.8239 -8.8617,-20.5281 -10.00084,-112.7247 l -1.18876,-96.2116 16.3752,11.1363 c 115.46764,78.5267 326.81876,133.8493 583.96841,152.8579 71.00007,5.2483 263.28288,5.2393 334.10165,-0.016 244.1543,-18.1169 438.6865,-66.3735 563.2044,-139.7114 18.4675,-10.8769 34.3791,-19.7761 35.3593,-19.7761 0.9801,0 1.2466,42.2847 0.5922,93.9661 -1.1375,89.8416 -1.5765,94.6909 -10.0018,110.4791 -66.8551,125.2801 -392.4357,215.4289 -767.52992,212.5186 -47.0187,-0.3648 -93.17667,-1.1846 -102.57328,-1.8219 z" id="path5110" /><path style="fill:#f2e900" d="m 896,1152 c 158,0 305.6667,-14.3333 443,-43 137.3333,-28.6667 245.6667,-71 325,-127 v 170 c 0,46 -34.3333,88.6667 -103,128 -68.6667,39.3333 -162,70.5 -280,93.5 -118,23 -246.3333,34.5 -385,34.5 -138.66667,0 -267,-11.5 -385,-34.5 -118,-23 -211.33333,-54.1667 -280,-93.5 -68.66667,-39.3333 -103,-82 -103,-128 V 982 c 79.33333,56 187.66667,98.3333 325,127 137.33333,28.6667 285,43 443,43 z M 896,0 c 128.8476,0 258.8722,8.1663078 385,34.5 96.3225,20.110769 199.2201,37.312119 280,93.5 44.9588,31.27187 103,82 103,128 v 128 c 0,46 -34.3333,88.66667 -103,128 -68.6667,39.33333 -162,70.5 -280,93.5 C 1163,628.5 1034.6667,640 896,640 757.33333,640 629,628.5 511,605.5 393,582.5 299.66667,551.33333 231,512 162.33333,472.66667 128,430 128,384 V 256 C 128,210 162.33333,167.33333 231,128 299.66667,88.666667 414.67747,54.610769 511,34.5 637.12784,8.1663078 767.15244,0 896,0 Z" id="path2" /></svg> 